<?xml version="1.0" standalone="no"?>
<!DOCTYPE svg PUBLIC "-//W3C//DTD SVG 20010904//EN"
 "http://www.w3.org/TR/2001/REC-SVG-20010904/DTD/svg10.dtd">
<svg version="1.0" xmlns="http://www.w3.org/2000/svg"
 width="307.000000pt" height="502.000000pt" viewBox="0 0 307.000000 502.000000"
 preserveAspectRatio="xMidYMid meet">

<g transform="translate(0.000000,502.000000) scale(0.100000,-0.100000)"
fill="#000000" stroke="none">
<path d="M244 4996 c-96 -44 -175 -134 -217 -244 l-22 -57 -3 -2120 c-2 -1441
1 -2142 8 -2190 28 -186 165 -330 349 -365 77 -14 2277 -14 2356 1 176 32 316
177 345 355 13 81 13 4218 0 4299 -22 134 -116 260 -235 316 l-60 29 -1235 0
-1235 0 -51 -24z m2443 -296 c22 -13 35 -31 42 -57 6 -25 10 -604 10 -1636
l-1 -1597 -1206 2 -1207 3 0 1612 0 1612 21 28 c11 15 32 34 45 40 19 10 275
13 1144 13 1093 0 1121 -1 1152 -20z m51 -3927 c0 -368 -3 -388 -58 -415 -33
-17 -109 -18 -1153 -18 -974 0 -1123 2 -1151 15 -61 29 -61 27 -63 403 l-2
342 1214 0 1213 0 0 -327z"/>
<path d="M1230 4420 l0 -160 295 0 295 0 0 160 0 160 -295 0 -295 0 0 -160z"/>
<path d="M1440 944 c-46 -20 -97 -69 -122 -118 -16 -31 -19 -54 -16 -112 3
-61 8 -79 33 -116 17 -23 52 -56 79 -72 41 -26 58 -30 115 -30 55 0 76 5 114
27 80 47 119 115 118 204 -1 132 -101 233 -231 232 -30 0 -71 -7 -90 -15z"/>
</g>
</svg>
